<?xml version="1.0" standalone="no"?>
<!DOCTYPE svg PUBLIC "-//W3C//DTD SVG 20010904//EN"
 "http://www.w3.org/TR/2001/REC-SVG-20010904/DTD/svg10.dtd">
<svg version="1.0" xmlns="http://www.w3.org/2000/svg"
 width="1024.000000pt" height="1024.000000pt" viewBox="0 0 1024.000000 1024.000000"
 preserveAspectRatio="xMidYMid meet">
<metadata>
Created by potrace 1.14, written by Peter Selinger 2001-2017
</metadata>
<g transform="translate(0.000000,1024.000000) scale(0.100000,-0.100000)"
fill="#000000" stroke="none">
<path d="M4535 10214 c-916 -42 -1748 -268 -2472 -669 -686 -381 -1133 -800
-1378 -1293 -214 -432 -338 -950 -337 -1417 0 -343 65 -604 200 -802 l40 -59
-84 -78 c-46 -42 -104 -106 -129 -140 -280 -393 -189 -961 193 -1203 33 -21
73 -45 88 -54 26 -14 32 -27 57 -130 15 -63 27 -117 27 -120 0 -4 -30 -31 -67
-61 -228 -185 -366 -393 -409 -616 -19 -99 -18 -345 1 -457 19 -107 62 -221
113 -299 75 -114 215 -234 344 -297 l46 -22 11 -76 c38 -255 130 -553 245
-796 211 -444 569 -786 1105 -1054 1111 -558 2579 -689 4476 -400 491 74 770
156 1120 329 286 141 510 296 719 499 395 385 602 825 671 1431 9 74 24 162
35 195 11 33 35 137 54 230 18 94 42 191 53 217 20 45 24 47 191 132 203 102
294 170 381 286 310 411 254 897 -151 1325 -90 95 -243 225 -343 291 l-52 35
-18 87 c-23 118 -58 234 -105 353 l-39 100 19 81 c11 45 23 109 26 142 6 52
15 73 69 151 229 331 295 571 282 1010 -10 293 -53 561 -140 865 -159 553
-418 921 -891 1267 -696 509 -1906 899 -3098 998 -178 15 -692 26 -853 19z
m-3504 -4662 c437 -306 1236 -589 2046 -727 348 -58 714 -96 1118 -116 227
-11 958 -7 1210 7 l100 5 -70 -66 c-273 -260 -611 -430 -811 -411 -113 11
-181 42 -324 144 -98 70 -208 125 -317 159 -80 24 -103 27 -258 27 -144 1
-186 -3 -275 -22 -133 -30 -273 -77 -465 -158 -202 -84 -268 -105 -341 -111
-147 -13 -326 71 -517 241 -280 249 -466 353 -730 407 -71 14 -162 23 -298 27
-195 7 -196 7 -245 37 -37 24 -56 45 -79 90 -28 54 -30 67 -30 159 0 120 20
172 95 247 42 41 115 97 131 98 3 1 30 -16 60 -37z m8380 -1235 c63 -97 83
-159 83 -262 1 -82 -2 -96 -33 -163 -49 -105 -98 -145 -282 -236 -220 -108
-307 -184 -381 -330 -47 -94 -66 -156 -103 -344 -37 -184 -56 -241 -105 -302
-51 -64 -74 -70 -282 -70 -290 0 -437 -26 -577 -101 -117 -63 -191 -129 -335
-298 -293 -344 -454 -461 -675 -493 -107 -16 -217 5 -487 91 -421 135 -570
153 -803 100 -114 -26 -228 -82 -376 -184 -69 -47 -160 -103 -203 -123 l-77
-37 -155 0 c-142 1 -162 3 -232 28 -95 33 -144 62 -331 200 -293 215 -443 281
-667 294 -176 10 -308 -27 -525 -145 -134 -73 -171 -88 -259 -107 -95 -19
-157 -19 -253 1 -137 28 -245 100 -293 194 -11 22 -33 104 -49 183 -48 236
-102 364 -197 466 -100 107 -204 152 -467 200 -186 35 -273 59 -372 107 -138
65 -180 123 -195 267 -13 131 2 253 40 325 27 52 135 173 143 161 1 -2 25 -38
51 -79 411 -634 1206 -1068 2216 -1209 303 -43 896 -85 1415 -101 816 -26
1605 35 2211 171 985 220 1658 619 2068 1226 103 153 212 377 274 565 29 85
52 164 52 174 1 25 109 -88 161 -169z"/>
</g>
</svg>
